<svg width="512" height="512" viewBox="0 0 512 512" xmlns="http://www.w3.org/2000/svg">
  <defs>
    <linearGradient id="grad1" x1="0%" y1="0%" x2="100%" y2="100%">
      <stop offset="0%" style="stop-color:#4facfe;stop-opacity:1" />
      <stop offset="100%" style="stop-color:#00f2fe;stop-opacity:1" />
    </linearGradient>
  </defs>
  <rect width="512" height="512" rx="64" fill="url(#grad1)"/>
  <g transform="translate(128, 128)">
    <path d="M192 32H64C57.28 32 52 37.28 52 44v118c0 14.72 11.28 26 26 26h128c14.72 0 26-11.28 26-26V44c0-6.72-5.28-12-12-12zM192 162H64V44h128v118z" fill="white"/>
    <path d="M84 80h86v21H84zM84 123h64v21H84zM84 101h75v16H84z" fill="white"/>
    <circle cx="192" cy="192" r="21" fill="white"/>
    <path d="M64 224h128v21H64z" fill="white"/>
  </g>
</svg>